<svg width="38" height="33" viewBox="0 0 38 33" fill="none" xmlns="http://www.w3.org/2000/svg">
<g clip-path="url(#clip0_45_56)">
<path d="M33.1064 6.04367V23.2561C33.1064 24.3748 32.2186 25.2806 31.1223 25.2806H26.4907V13.8065L18.5532 19.8826L10.6156 13.8065V25.2818H5.98409C5.72343 25.2818 5.46533 25.2294 5.22453 25.1276C4.98373 25.0258 4.76495 24.8766 4.5807 24.6884C4.39644 24.5003 4.25032 24.277 4.15068 24.0312C4.05104 23.7854 3.99984 23.522 4 23.2561V6.04367C4 3.54021 6.80028 2.11089 8.76253 3.61322L10.6156 5.03263L18.5532 11.1063L26.4907 5.03016L28.3439 3.61322C30.3049 2.11213 33.1064 3.54021 33.1064 6.04367Z" fill="#2A444F"/>
</g>
<defs>
<clipPath id="clip0_45_56">
<rect width="38" height="33" fill="white"/>
</clipPath>
</defs>
</svg>
