<svg width="51" height="51" viewBox="0 0 51 51" fill="none" xmlns="http://www.w3.org/2000/svg">
<path d="M25.5 0.0833282C11.47 0.0833282 0.0833359 11.47 0.0833359 25.5C0.0833359 39.53 11.47 50.9167 25.5 50.9167C39.53 50.9167 50.9167 39.53 50.9167 25.5C50.9167 11.47 39.53 0.0833282 25.5 0.0833282ZM37.2933 17.3667C36.9121 21.3825 35.26 31.1425 34.4212 35.6412C34.0654 37.5475 33.3538 38.1829 32.6929 38.2592C31.2188 38.3862 30.1004 37.2933 28.6771 36.3529C26.4404 34.8787 25.1696 33.9637 23.0092 32.5404C20.4929 30.8883 22.1196 29.9733 23.5683 28.4992C23.9496 28.1179 30.4563 22.1958 30.5833 21.6621C30.601 21.5812 30.5986 21.4973 30.5765 21.4176C30.5543 21.3378 30.5131 21.2647 30.4562 21.2046C30.3038 21.0775 30.1004 21.1283 29.9225 21.1537C29.6938 21.2046 26.1354 23.5683 19.1967 28.245C18.18 28.9312 17.265 29.2871 16.4517 29.2617C15.5367 29.2362 13.8083 28.7533 12.5121 28.3212C10.9108 27.8129 9.66542 27.5333 9.76709 26.6437C9.81792 26.1862 10.4533 25.7287 11.6479 25.2458C19.0696 22.0179 24.0004 19.8829 26.4658 18.8662C33.5317 15.9179 34.9804 15.4096 35.9463 15.4096C36.1496 15.4096 36.6325 15.4604 36.9375 15.7146C37.1917 15.9179 37.2679 16.1975 37.2933 16.4008C37.2679 16.5533 37.3187 17.0108 37.2933 17.3667Z" fill="#2A444F"/>
</svg>
