<svg width="50" height="51" viewBox="0 0 50 51" fill="none" xmlns="http://www.w3.org/2000/svg">
<path d="M44.8 39.0596H40.0458C38.2479 39.0596 37.7062 37.5742 34.4833 34.2847C31.6667 31.5159 30.4771 31.1716 29.7646 31.1716C28.7792 31.1716 28.5104 31.4479 28.5104 32.8312V37.1917C28.5104 38.3711 28.1354 39.0617 25.1146 39.0617C22.1839 38.8609 19.342 37.9528 16.8229 36.4122C14.3037 34.8716 12.1794 32.7426 10.625 30.2005C6.93544 25.5141 4.36752 20.015 3.125 14.1397C3.125 13.413 3.39583 12.7542 4.75417 12.7542H9.50417C10.725 12.7542 11.1646 13.3089 11.6438 14.5902C13.95 21.5135 17.8854 27.5357 19.4833 27.5357C20.0958 27.5357 20.3625 27.2595 20.3625 25.7019V18.5704C20.1604 15.317 18.4667 15.0429 18.4667 13.8656C18.4881 13.555 18.6274 13.2652 18.8549 13.0577C19.0825 12.8502 19.3804 12.7413 19.6854 12.7542H27.1521C28.1729 12.7542 28.5104 13.2727 28.5104 14.518V24.1442C28.5104 25.1834 28.9479 25.5276 29.2563 25.5276C29.8687 25.5276 30.3396 25.1834 31.4625 24.0401C33.8685 21.0453 35.8349 17.7096 37.3 14.1376C37.4493 13.7083 37.7324 13.3407 38.1061 13.0912C38.4797 12.8418 38.9233 12.7241 39.3687 12.7564H44.1208C45.5458 12.7564 45.8479 13.4831 45.5458 14.5201C43.817 18.469 41.6784 22.2176 39.1667 25.7019C38.6542 26.4987 38.45 26.9131 39.1667 27.8481C39.6375 28.5749 41.3042 29.9944 42.4229 31.3437C44.0521 33.0012 45.4042 34.918 46.4271 37.0175C46.8354 38.369 46.1562 39.0596 44.8 39.0596Z" fill="#2A434F"/>
</svg>
