<svg width="107" height="107" viewBox="0 0 107 107" fill="none" xmlns="http://www.w3.org/2000/svg">
<path d="M52.5638 51.2709H43.335V36.5138H54.3471C59.9646 36.5138 63.0854 39.0104 63.0854 43.6025C63.0854 48.5959 59.385 51.2709 52.5638 51.2709ZM54.2134 56.3088H43.335V72.5371H54.7484C61.7034 72.5371 65.3592 69.7284 65.3592 64.3783C65.3592 59.0284 61.5696 56.3088 54.2134 56.3088ZM98.0834 23.6738V83.3263C98.0834 91.3959 91.3959 98.0834 83.3263 98.0834H23.6738C15.6042 98.0834 8.91669 91.3959 8.91669 83.3263V23.6738C8.91669 15.6042 15.6042 8.91669 23.6738 8.91669H83.3263C91.3959 8.91669 98.0834 15.6042 98.0834 23.6738ZM71.3334 64.6459C71.3334 58.4934 67.2317 54.0796 60.9454 53.2771V53.0096C65.4038 52.2071 68.9259 47.7488 68.9259 42.9338C68.9259 36.0234 63.5759 31.4313 55.7292 31.4313H37.5838V77.6196H55.5954C65.4484 77.6196 71.3334 72.76 71.3334 64.6459Z" fill="#2A444F"/>
</svg>
