<svg width="86" height="86" viewBox="0 0 86 86" fill="none" xmlns="http://www.w3.org/2000/svg">
<g clip-path="url(#clip0_10_84)">
<path d="M26.8822 0H36.12V3.86283H30.745V7.72567H36.12V11.5885H26.8822V0ZM37.9654 0H47.2068V3.36117H41.8318V4.03125H47.2068V11.7569H37.9654V8.23092H43.3404V7.55725H37.9654V0ZM49.0558 0H58.2901V3.36117H52.9151V4.03125H58.2901V11.7569H49.0558V8.23092H54.4308V7.55725H49.0558V0Z" fill="#27454D"/>
<path fill-rule="evenodd" clip-rule="evenodd" d="M42.9678 86L18.0851 79.0913L10.75 16.9026H75.25L67.9185 79.0842L42.9678 86ZM25.2517 45.0533L25.9362 52.6786H52.3704L51.4853 62.5686L42.9785 64.8691H42.9713L34.4788 62.5758L33.9342 56.4948H26.2766L27.3444 68.4703L42.9678 72.8062L58.6162 68.4703L60.5225 47.0993L60.7088 45.0533L62.0848 29.6127H23.8793L24.5745 37.2416H53.7285L53.0333 45.0533H25.2517Z" fill="#27454D"/>
</g>
<defs>
<clipPath id="clip0_10_84">
<rect width="86" height="86" fill="white"/>
</clipPath>
</defs>
</svg>
