<svg width="55" height="82" viewBox="0 0 55 82" fill="none" xmlns="http://www.w3.org/2000/svg">
<path d="M13.4962 0H26.9382V26.5747H13.4963C-4.23054 25.8897 -4.40957 0.719422 13.4962 0ZM13.4962 54.2861H26.9382V27.7113H13.4963C-4.40941 28.4308 -4.23054 53.6011 13.4962 54.2861ZM41.5304 0H28.0881V26.5747H41.5304C59.4958 25.6244 59.2719 0.542449 41.5304 0ZM26.9382 68.7102V55.4227H13.4963C2.52709 55.4227 -4.40941 68.1353 3.21942 77.2661C10.4929 86.3163 26.9382 81.8043 26.9382 68.7102ZM55 40.9987C55 30.7871 43.7398 24.3705 34.7804 29.4763C25.8211 34.582 25.8209 47.4155 34.7804 52.5213C43.7399 57.6271 55 51.2103 55 40.9987Z" fill="#2A444F"/>
</svg>
