<svg width="100" height="100" viewBox="0 0 100 100" fill="none" xmlns="http://www.w3.org/2000/svg">
<g clip-path="url(#clip0_11_17)">
<path d="M98.1125 45.5437L54.45 1.88748C53.8522 1.28937 53.1424 0.814898 52.3612 0.491185C51.5799 0.167471 50.7425 0.000854492 49.8969 0.000854492C49.0512 0.000854492 48.2139 0.167471 47.4326 0.491185C46.6514 0.814898 45.9416 1.28937 45.3438 1.88748L36.2813 10.95L47.7813 22.45C49.1375 21.9869 50.5967 21.9145 51.9922 22.2409C53.3876 22.5674 54.6632 23.2795 55.6734 24.2962C56.6835 25.3128 57.3875 26.593 57.7049 27.9905C58.0224 29.3881 57.9405 30.8467 57.4688 32.2L68.55 43.2875C70.1895 42.7102 71.9766 42.7085 73.6172 43.2825C75.2578 43.8566 76.654 44.9721 77.5759 46.4456C78.4978 47.9191 78.8905 49.6625 78.6892 51.389C78.488 53.1154 77.7049 54.7218 76.4688 55.9437C75.2166 57.1987 73.568 57.9805 71.8039 58.1562C70.0398 58.3318 68.2694 57.8904 66.7943 56.907C65.3192 55.9236 64.2308 54.4592 63.7144 52.7632C63.1981 51.0673 63.2858 49.2448 63.9625 47.6062L53.6188 37.2687V64.475C54.3563 64.8291 55.0313 65.3104 55.6438 65.9187C56.8074 67.0816 57.566 68.588 57.8072 70.2153C58.0484 71.8426 57.7595 73.5044 56.9832 74.9548C56.207 76.4052 54.9845 77.5672 53.4966 78.2691C52.0088 78.9709 50.3345 79.1753 48.7215 78.852C47.1085 78.5286 45.6424 77.6948 44.54 76.4737C43.4376 75.2526 42.7575 73.7092 42.6002 72.0717C42.4428 70.4341 42.8167 68.7894 43.6665 67.3808C44.5163 65.9722 45.7968 64.8745 47.3188 64.25V36.7937C46.3831 36.4103 45.5325 35.8455 44.8161 35.1318C44.0998 34.4182 43.5317 33.5697 43.1448 32.6355C42.7578 31.7013 42.5596 30.6997 42.5616 29.6885C42.5636 28.6773 42.7657 27.6765 43.1563 26.7437L31.8313 15.4062L1.89377 45.3437C1.29565 45.9416 0.821185 46.6514 0.497471 47.4326C0.173757 48.2138 0.00714111 49.0512 0.00714111 49.8969C0.00714111 50.7425 0.173757 51.5799 0.497471 52.3611C0.821185 53.1424 1.29565 53.8522 1.89377 54.45L45.5563 98.1125C46.1541 98.7106 46.8639 99.1851 47.6451 99.5088C48.4264 99.8325 49.2637 99.9991 50.1094 99.9991C50.955 99.9991 51.7924 99.8325 52.5737 99.5088C53.3549 99.1851 54.0647 98.7106 54.6625 98.1125L98.1188 54.6562C98.7178 54.0583 99.1931 53.3481 99.5173 52.5663C99.8416 51.7845 100.009 50.9464 100.009 50.1C100.009 49.2536 99.8416 48.4155 99.5173 47.6337C99.1931 46.8519 98.7178 46.1417 98.1188 45.5437" fill="#2A444F"/>
</g>
<defs>
<clipPath id="clip0_11_17">
<rect width="100" height="100" fill="white"/>
</clipPath>
</defs>
</svg>
