<svg width="75" height="75" viewBox="0 0 75 75" fill="none" xmlns="http://www.w3.org/2000/svg">
<path d="M4.6875 4.6875V70.3125H70.3125V4.6875H4.6875ZM40.4016 55.868C40.4016 62.2547 36.6516 65.1703 31.1883 65.1703C26.2523 65.1703 23.3953 62.6227 21.9305 59.5312L26.9555 56.4984C27.9234 58.2117 28.8023 59.6625 30.9258 59.6625C32.9461 59.6625 34.2352 58.8703 34.2352 55.7812V34.8188H40.4016V55.868ZM54.9891 65.1703C49.2609 65.1703 45.5555 62.4469 43.7531 58.8703L48.7781 55.9711C50.0977 58.125 51.825 59.7211 54.8578 59.7211C57.4055 59.7211 59.0484 58.4461 59.0484 56.6742C59.0484 54.5648 57.3773 53.8172 54.5508 52.5727L53.0133 51.9141C48.5602 50.025 45.6164 47.6367 45.6164 42.6117C45.6164 37.9828 49.1461 34.4672 54.6398 34.4672C58.5656 34.4672 61.3781 35.8289 63.4008 39.4031L58.5961 42.4805C57.5414 40.5914 56.3977 39.8438 54.6258 39.8438C52.8258 39.8438 51.682 40.9875 51.682 42.4805C51.682 44.3273 52.8258 45.0727 55.4766 46.2305L57.0141 46.8891C62.2594 49.1297 65.2031 51.4312 65.2031 56.5852C65.2031 62.1234 60.8367 65.168 54.9914 65.168L54.9891 65.1703Z" fill="#2A444F"/>
</svg>
