<svg width="86" height="86" viewBox="0 0 86 86" fill="none" xmlns="http://www.w3.org/2000/svg">
<path d="M35.2958 30.1717C33.97 29.6342 32.5367 29.4192 31.0675 29.455C30.1358 29.455 29.3117 29.455 28.6308 29.4908C27.9142 29.455 27.4125 29.4908 27.1617 29.5267V41.5667C27.6633 41.6025 28.1292 41.6383 28.5592 41.6383H30.4583C31.8558 41.6383 33.2533 41.4233 34.5792 40.9933C35.7258 40.6708 36.7292 39.99 37.5175 39.0942C38.27 38.1983 38.6283 36.98 38.6283 35.4033C38.6642 34.2925 38.3775 33.1817 37.8042 32.2142C37.2067 31.2838 36.328 30.5683 35.2958 30.1717ZM70.7708 1.07501H15.2292C6.80833 1.07501 0 7.88335 0 16.3042V69.6923C0 78.1131 6.80833 84.9214 15.2292 84.9214H70.7708C79.1917 84.9214 86 78.1131 86 69.6923V16.3042C86 7.88335 79.1917 1.07501 70.7708 1.07501ZM44.2864 42.8208C42.8567 44.8275 40.85 46.3325 38.5208 47.1925C36.0842 48.0883 33.3967 48.4108 30.4583 48.4108C29.5983 48.4108 29.025 48.4108 28.6667 48.375C28.3083 48.3392 27.8067 48.3392 27.1258 48.3392V59.8381C27.1617 60.0889 26.9825 60.3075 26.7317 60.3434H19.78C19.4933 60.3434 19.35 60.1964 19.35 59.8739V23.005C19.35 22.7542 19.4575 22.6108 19.7083 22.6108C20.3175 22.6108 20.8908 22.6108 21.715 22.575C22.575 22.5392 23.4708 22.5392 24.4383 22.5033C25.4058 22.4675 26.445 22.4675 27.5558 22.4317C28.6667 22.3958 29.7417 22.3958 30.8167 22.3958C33.755 22.3958 36.1917 22.7542 38.1983 23.5067C39.99 24.1158 41.6383 25.1192 43 26.445C44.1467 27.5917 45.0425 28.9892 45.6158 30.53C46.1497 32.035 46.4364 33.5758 46.4364 35.1883C46.4412 38.27 45.7245 40.8142 44.2864 42.8208ZM69.6958 56.76C68.6925 58.1933 67.2914 59.3006 65.6825 59.9528C63.9267 60.7017 61.7767 61.0923 59.1931 61.0923C57.5483 61.0923 55.9322 60.9525 54.3233 60.63C53.0692 60.4114 51.815 60.0209 50.6683 59.4834C50.4175 59.3436 50.2347 59.0928 50.2706 58.8061V52.5711C50.2706 52.4672 50.31 52.3203 50.4175 52.2486C50.5214 52.1769 50.6325 52.2128 50.74 52.2844C52.1375 53.1086 53.6067 53.6855 55.1833 54.0403C56.5414 54.3986 57.9747 54.5778 59.4117 54.5778C60.7733 54.5778 61.7408 54.395 62.3858 54.0725C62.9592 53.8217 63.3533 53.2125 63.3533 52.5675C63.3533 52.0623 63.0667 51.6 62.4933 51.1342C61.92 50.6719 60.7411 50.1344 58.9852 49.4464C57.1577 48.8014 55.4772 47.9414 53.8969 46.87C52.7737 46.0691 51.8423 45.0288 51.17 43.8242C50.6008 42.6903 50.319 41.4339 50.3494 40.1656C50.3494 38.6248 50.7794 37.1556 51.5713 35.8298C52.4672 34.3964 53.7894 33.2498 55.3302 32.5331C57.0108 31.6767 59.125 31.2825 61.6692 31.2825C63.1383 31.2825 64.6433 31.39 66.1125 31.605C67.1875 31.7483 68.2267 32.035 69.1942 32.4292C69.3339 32.465 69.4808 32.6083 69.5525 32.7517C69.5883 32.895 69.6242 33.0383 69.6242 33.1817V39.0225C69.6242 39.1658 69.5525 39.3092 69.445 39.3808C69.1225 39.4525 68.9433 39.4525 68.8 39.3808C67.725 38.8075 66.5783 38.4133 65.36 38.1625C64.0342 37.8758 62.7083 37.6967 61.3467 37.6967C60.63 37.6608 59.8775 37.7683 59.1931 37.9475C58.7308 38.055 58.3331 38.3058 58.0822 38.6642C57.9031 38.9508 57.7956 39.3092 57.7956 39.6317C57.7956 39.9542 57.9389 40.2767 58.1575 40.5633C58.48 40.9575 58.9064 41.28 59.3758 41.5308C60.1964 41.9608 61.06 42.355 61.9164 42.7133C63.855 43.3583 65.7183 44.2542 67.4383 45.3292C68.6208 46.0781 69.5883 47.085 70.2656 48.3033C70.8389 49.4428 71.1256 50.7042 71.0898 51.9906C71.1292 53.6783 70.6275 55.3589 69.6958 56.76Z" fill="#2A444F"/>
</svg>
