<svg width="88" height="88" viewBox="0 0 88 88" fill="none" xmlns="http://www.w3.org/2000/svg">
<path d="M44 37.07C47.7766 37.07 50.8566 40.15 50.8566 44C50.8566 47.6667 47.7766 50.7833 44 50.7833C40.2233 50.7833 37.1433 47.6667 37.1433 44C37.1433 40.15 40.2233 37.07 44 37.07ZM27.0233 73.3333C29.3333 74.7267 34.3933 72.6 40.2233 67.1C38.3166 64.9367 36.4466 62.59 34.6866 60.1333C31.7321 59.8485 28.7947 59.4079 25.8866 58.8133C24.0166 66.66 24.7133 72.05 27.0233 73.3333ZM29.6266 52.2867L28.5633 50.4167C28.16 51.48 27.7566 52.5433 27.5 53.57C28.49 53.79 29.59 53.9733 30.7266 54.1567L29.6266 52.2867ZM53.6066 49.5L56.5766 44L53.6066 38.5C52.5066 36.5567 51.3333 34.8333 50.27 33.11C48.29 33 46.2 33 44 33C41.8 33 39.71 33 37.73 33.11C36.6666 34.8333 35.4933 36.5567 34.3933 38.5L31.4233 44L34.3933 49.5C35.4933 51.4433 36.6666 53.1667 37.73 54.89C39.71 55 41.8 55 44 55C46.2 55 48.29 55 50.27 54.89C51.3333 53.1667 52.5066 51.4433 53.6066 49.5ZM44 24.86C43.3033 25.6667 42.57 26.51 41.8366 27.5H46.1633C45.43 26.51 44.6966 25.6667 44 24.86ZM44 63.14C44.6966 62.3333 45.43 61.49 46.1633 60.5H41.8366C42.57 61.49 43.3033 62.3333 44 63.14ZM60.94 14.6667C58.6666 13.2733 53.6066 15.4 47.7766 20.9C49.6833 23.0633 51.5533 25.41 53.3133 27.8667C56.32 28.16 59.29 28.6 62.1133 29.1867C63.9833 21.34 63.2867 15.95 60.94 14.6667ZM58.3733 35.7133L59.4366 37.5833C59.84 36.52 60.2433 35.4567 60.5 34.43C59.51 34.21 58.41 34.0267 57.2733 33.8433L58.3733 35.7133ZM63.69 9.86334C69.08 12.9433 69.6666 21.0467 67.3933 30.5067C76.7066 33.2567 83.4166 37.8033 83.4166 44C83.4166 50.1967 76.7066 54.7433 67.3933 57.4933C69.6666 66.9533 69.08 75.0567 63.69 78.1367C58.3367 81.2167 51.04 77.6967 44 70.9867C36.96 77.6967 29.6633 81.2167 24.2733 78.1367C18.92 75.0567 18.3333 66.9533 20.6066 57.4933C11.2933 54.7433 4.58331 50.1967 4.58331 44C4.58331 37.8033 11.2933 33.2567 20.6066 30.5067C18.3333 21.0467 18.92 12.9433 24.2733 9.86334C29.6633 6.78334 36.96 10.3033 44 17.0133C51.04 10.3033 58.3367 6.78334 63.69 9.86334ZM62.6266 44C63.8733 46.75 64.9733 49.5 65.89 52.2867C73.59 49.9767 77.9166 46.6767 77.9166 44C77.9166 41.3233 73.59 38.0233 65.89 35.7133C64.9733 38.5 63.8733 41.25 62.6266 44ZM25.3733 44C24.1266 41.25 23.0266 38.5 22.11 35.7133C14.41 38.0233 10.0833 41.3233 10.0833 44C10.0833 46.6767 14.41 49.9767 22.11 52.2867C23.0266 49.5 24.1266 46.75 25.3733 44ZM58.3733 52.2867L57.2733 54.1567C58.41 53.9733 59.51 53.79 60.5 53.57C60.2433 52.5433 59.84 51.48 59.4366 50.4167L58.3733 52.2867ZM47.7766 67.1C53.6066 72.6 58.6666 74.7267 60.94 73.3333C63.2867 72.05 63.9833 66.66 62.1133 58.8133C59.29 59.4 56.32 59.84 53.3133 60.1333C51.5533 62.59 49.6833 64.9367 47.7766 67.1ZM29.6266 35.7133L30.7266 33.8433C29.59 34.0267 28.49 34.21 27.5 34.43C27.7566 35.4567 28.16 36.52 28.5633 37.5833L29.6266 35.7133ZM40.2233 20.9C34.3933 15.4 29.3333 13.2733 27.0233 14.6667C24.7133 15.95 24.0166 21.34 25.8866 29.1867C28.7947 28.5921 31.7321 28.1515 34.6866 27.8667C36.4466 25.41 38.3166 23.0633 40.2233 20.9Z" fill="#2A444F"/>
</svg>
